<svg width="1439" height="264" viewBox="0 0 1439 264" fill="none" xmlns="http://www.w3.org/2000/svg">
<path d="M1772 1C1698.16 30.7218 1620.96 57.946 1538.23 77.9418C1511.41 84.4251 1483.84 90.1676 1455.19 92.7366C1396.75 97.9753 1337.49 89.794 1278.41 88.6963C1203.37 87.3005 1127.91 97.7927 1061.5 118.374C1011.53 133.861 955.303 156.325 898.773 161.963C847.419 167.084 792.174 139.22 746.697 128.348C700.116 117.213 648.018 114.842 598.825 120.569C573.053 123.571 547.986 128.793 524.874 136.168C502.773 143.222 483.519 156.351 457.317 146.033C448.656 142.622 442.669 137.367 435.226 133.07C409.358 118.141 364.123 116.974 336.145 130.516" stroke="#1B76BA" stroke-opacity="0.3" stroke-width="0.552088" stroke-miterlimit="10"/>
<path d="M1768.74 1.93197C1696.58 32.0526 1620.17 59.5622 1537.9 79.4845C1510.51 86.1295 1482.36 91.6977 1453.2 94.5647C1418.01 97.9964 1382.46 96.7245 1346.79 94.9153C1322.45 93.6811 1298.04 92.1951 1273.67 91.7796C1225.51 90.961 1177.19 94.5039 1131.12 101.965C1104.18 106.329 1078.02 112.036 1053.08 119.029C1035.56 123.917 1017.35 129.58 998.669 135.094C972.396 142.826 945.19 150.256 917.546 155.014C907.622 156.729 897.645 158.099 887.656 158.999C846.365 162.706 802.625 147.009 763.281 135.461C752.734 132.35 742.504 129.538 732.711 127.477C692.463 118.928 648.57 116.783 606.086 120.507C598.771 121.147 591.495 121.961 584.28 122.948C558.551 126.463 533.506 132.143 510.191 139.774C496.383 144.295 483.576 151.024 469.487 153.15C460.812 154.46 451.693 154 441.548 150.26C432.684 146.992 426.359 141.942 418.638 137.793C391.842 123.367 346.243 122.095 317.461 135.463" stroke="#1B76BA" stroke-opacity="0.3" stroke-width="0.552088" stroke-miterlimit="10"/>
<path d="M1765.49 2.86163C1695 33.3831 1619.39 61.1761 1537.57 81.0249C1509.6 87.8336 1480.87 93.2277 1451.21 96.3885C1415.57 100.137 1379.49 99.222 1343.26 97.6646C1318.52 96.6026 1293.71 95.2405 1268.92 94.8585C1219.97 94.0987 1170.84 97.333 1124 104.123C1096.61 108.092 1070.02 113.286 1044.66 119.679C1026.79 124.135 1008.28 129.315 989.322 134.336C962.635 141.367 935.056 148.075 906.917 152.396C896.833 153.958 886.692 155.211 876.525 156.034C834.423 159.411 789.832 144.471 749.772 133.853C739.058 130.986 728.657 128.442 718.715 126.608C677.918 119.081 633.922 117.841 591.495 122.442C584.194 123.231 576.933 124.196 569.728 125.325C544.039 129.355 519.015 135.492 495.5 143.382C481.568 148.058 468.544 154.821 454.191 157.052C445.346 158.426 436.073 158.036 425.772 154.489C416.698 151.364 410.042 146.522 402.043 142.517C374.321 128.595 328.353 127.219 298.773 140.41" stroke="#1B76BA" stroke-opacity="0.3" stroke-width="0.552088" stroke-miterlimit="10"/>
<path d="M1762.23 3.79156C1693.43 34.7118 1618.61 62.7923 1537.25 82.5656C1508.7 89.5359 1479.39 94.7558 1449.23 98.2147C1413.14 102.282 1376.52 101.722 1339.73 100.416C1314.6 99.5285 1289.38 98.2902 1264.19 97.9376C1214.43 97.2387 1164.49 100.162 1116.89 106.278C1089.06 109.855 1062.07 114.577 1036.24 120.328C1018.05 124.379 999.207 129.047 979.985 133.576C952.882 139.906 924.936 145.892 896.303 149.775C886.062 151.183 875.75 152.319 865.413 153.066C822.495 156.114 777.014 141.995 736.278 132.241C725.386 129.632 714.831 127.332 704.733 125.733C663.417 119.188 619.285 118.893 576.922 124.373C569.632 125.313 562.385 126.425 555.195 127.699C529.548 132.243 504.545 138.838 480.831 146.986C466.774 151.817 453.536 158.613 438.917 160.949C429.901 162.391 420.475 162.072 410.013 158.712C400.73 155.732 393.742 151.093 385.466 147.233C356.815 133.815 310.484 132.331 280.099 145.351" stroke="#1B76BA" stroke-opacity="0.3" stroke-width="0.552088" stroke-miterlimit="10"/>
<path d="M1758.98 4.72354C1691.85 36.0426 1617.82 64.4085 1536.92 84.1105C1507.79 91.2445 1477.92 96.3237 1447.24 100.043C1410.71 104.469 1373.56 104.224 1336.2 103.172C1310.68 102.457 1285.06 101.344 1259.45 101.023C1208.88 100.385 1158.14 103 1109.78 108.442C1081.5 111.624 1054.08 115.847 1027.82 120.985C1009.28 124.612 990.14 128.787 970.645 132.827C943.129 138.456 914.809 143.72 885.681 147.164C875.28 148.419 864.8 149.437 854.292 150.107C810.563 152.825 764.224 139.482 722.776 130.638C711.713 128.277 701.002 126.23 690.747 124.866C648.918 119.304 604.648 119.953 562.342 126.31C555.063 127.399 547.83 128.661 540.654 130.079C515.05 135.138 490.065 142.19 466.151 150.594C451.97 155.581 438.518 162.408 423.632 164.851C414.445 166.36 404.863 166.113 394.248 162.941C384.751 160.106 377.436 155.673 368.882 151.958C339.302 139.044 292.604 137.455 261.422 150.298" stroke="#1B76BA" stroke-opacity="0.3" stroke-width="0.552088" stroke-miterlimit="10"/>
<path d="M1755.72 5.65319C1690.28 37.3731 1617.04 66.0245 1536.59 85.6509C1506.89 92.9465 1476.44 97.8599 1445.25 101.867C1408.28 106.618 1370.59 106.721 1332.67 105.922C1306.76 105.38 1280.73 104.392 1254.71 104.1C1203.34 103.523 1151.8 105.827 1102.67 110.598C1073.94 113.387 1046.1 117.106 1019.4 121.634C1000.52 124.834 981.088 128.547 961.304 132.067C933.393 137.035 904.675 141.495 875.063 144.543C864.498 145.63 853.858 146.545 843.172 147.137C798.628 149.525 751.438 136.957 709.275 129.026C698.044 126.912 687.17 125.12 676.758 123.991C634.42 119.405 590.007 121.004 547.759 128.241C540.494 129.481 533.275 130.89 526.106 132.453C500.544 138.028 475.577 145.537 451.465 154.197C437.159 159.339 423.49 166.201 408.34 168.749C398.982 170.325 389.243 170.149 378.475 167.166C368.765 164.475 361.122 160.248 352.291 156.678C321.785 144.268 274.721 142.574 242.734 155.242" stroke="#1B76BA" stroke-opacity="0.3" stroke-width="0.552088" stroke-miterlimit="10"/>
<path d="M1752.47 6.58516C1688.7 38.7039 1616.26 67.6407 1536.26 87.1936C1505.99 94.6529 1474.96 99.3963 1443.27 103.695C1405.84 108.772 1367.62 109.221 1329.14 108.675C1302.84 108.306 1276.4 107.443 1249.97 107.183C1197.8 106.667 1145.45 108.663 1095.55 112.758C1066.38 115.152 1038.11 118.37 1010.98 122.286C991.76 125.061 972.022 128.287 951.968 131.311C923.64 135.585 894.551 139.31 864.444 141.925C853.723 142.857 842.913 143.659 832.056 144.171C786.7 146.23 738.659 134.437 695.777 127.416C684.379 125.55 673.348 124.01 662.773 123.12C619.929 119.51 575.37 122.06 533.179 130.174C525.924 131.563 518.72 133.121 511.565 134.827C486.046 140.916 461.101 148.883 436.785 157.801C422.354 163.099 408.472 169.993 393.056 172.646C383.53 174.29 373.624 174.187 362.706 171.391C352.779 168.847 344.812 164.822 335.707 161.396C304.272 149.49 256.841 147.689 224.057 160.185" stroke="#1B76BA" stroke-opacity="0.3" stroke-width="0.552088" stroke-miterlimit="10"/>
<path d="M1749.21 7.51481C1687.12 40.0323 1615.48 69.2546 1535.93 88.734C1505.08 96.355 1473.48 100.928 1441.28 105.519C1403.4 110.919 1364.65 111.719 1325.6 111.425C1298.91 111.23 1272.06 110.491 1245.22 110.26C1192.25 109.804 1139.09 111.49 1088.44 114.913C1058.82 116.915 1030.12 119.629 1002.56 122.935C982.986 125.283 962.945 128.022 942.62 130.554C913.876 134.13 884.421 137.123 853.819 139.306C842.941 140.082 831.96 140.769 820.928 141.203C774.757 142.933 725.873 131.912 682.272 125.804C670.707 124.184 659.515 122.897 648.78 122.244C605.435 119.606 560.723 123.111 518.591 132.105C511.348 133.643 504.157 135.352 497.017 137.201C471.541 143.804 446.613 152.228 422.098 161.403C407.543 166.855 393.443 173.784 377.763 176.542C368.067 178.25 357.997 178.225 346.934 175.612C336.785 173.215 328.499 169.393 319.116 166.112C286.756 154.707 238.957 152.804 205.369 165.124" stroke="#1B76BA" stroke-opacity="0.3" stroke-width="0.552088" stroke-miterlimit="10"/>
<path d="M1745.95 8.44446C1685.54 41.3628 1614.7 70.8706 1535.61 90.2765C1504.18 98.0612 1472 102.462 1439.3 107.346C1400.97 113.068 1361.68 114.22 1322.08 114.18C1294.99 114.157 1267.74 113.544 1240.49 113.345C1186.71 112.95 1132.75 114.325 1081.33 117.077C1051.26 118.684 1022.13 120.892 994.138 123.592C974.218 125.512 953.879 127.766 933.283 129.802C904.123 132.684 874.301 134.944 843.201 136.693C832.162 137.314 821.017 137.885 809.812 138.242C762.829 139.641 713.101 129.391 668.774 124.198C657.041 122.823 645.693 121.791 634.798 121.375C590.951 119.705 546.089 124.169 504.018 134.042C496.789 135.731 489.613 137.587 482.479 139.581C457.046 146.698 432.136 155.58 407.422 165.012C392.742 170.621 378.429 177.58 362.482 180.445C352.615 182.221 342.378 182.273 331.172 179.843C320.803 177.595 312.196 173.972 302.535 170.839C269.246 159.937 221.081 157.929 186.695 170.075" stroke="#1B76BA" stroke-opacity="0.3" stroke-width="0.552088" stroke-miterlimit="10"/>
<path d="M1742.7 9.37644C1683.97 42.6936 1613.92 72.4868 1535.28 91.8193C1503.27 99.7656 1470.51 103.997 1437.3 109.173C1398.53 115.215 1358.71 116.72 1318.54 116.932C1291.06 117.083 1263.4 116.592 1235.74 116.424C1181.17 116.09 1126.39 117.157 1074.21 119.232C1043.7 120.448 1014.14 122.15 985.716 124.242C965.448 125.735 944.806 127.504 923.939 129.045C894.363 131.229 864.174 132.759 832.575 134.073C821.381 134.539 810.065 134.995 798.685 135.274C750.887 136.344 700.315 126.862 655.265 122.588C643.369 121.459 631.857 120.678 620.801 120.502C576.46 119.797 531.442 125.223 489.428 135.973C482.209 137.811 475.047 139.816 467.928 141.955C442.537 149.586 417.649 158.928 392.732 168.616C377.931 174.38 363.397 181.373 347.187 184.343C337.149 186.186 326.744 186.316 315.392 184.068C304.799 181.969 295.875 178.548 285.937 175.557C251.722 165.159 203.187 163.044 168.001 175.016" stroke="#1B76BA" stroke-opacity="0.3" stroke-width="0.552088" stroke-miterlimit="10"/>
<path d="M1739.44 10.3064C1682.39 44.0223 1613.14 74.103 1534.95 93.36C1502.37 101.47 1469.04 105.529 1435.32 110.999C1396.1 117.362 1355.75 119.22 1315.01 119.684C1287.14 120.007 1259.07 119.642 1231 119.505C1175.62 119.232 1120.04 119.988 1067.1 121.392C1036.14 122.213 1006.14 123.407 977.294 124.895C956.677 125.957 935.732 127.244 914.595 128.291C884.599 129.777 854.047 130.579 821.953 131.46C810.602 131.771 799.115 132.111 787.564 132.313C738.955 133.053 687.543 124.337 641.764 120.983C629.7 120.099 618.032 119.57 606.812 119.633C561.976 119.889 516.801 126.28 474.844 137.91C467.636 139.9 460.488 142.051 453.383 144.335C428.035 152.48 403.165 162.28 378.052 172.224C363.126 178.143 348.379 185.17 331.902 188.245C321.693 190.155 311.121 190.365 299.627 188.297C288.809 186.35 279.558 183.138 269.353 180.282C234.173 170.432 185.311 168.167 149.32 179.965" stroke="#1B76BA" stroke-opacity="0.3" stroke-width="0.552088" stroke-miterlimit="10"/>
<path d="M1736.19 11.236C1680.81 45.3528 1612.35 75.7169 1534.63 94.9004C1501.47 103.172 1467.55 107.059 1433.33 112.823C1393.66 119.505 1352.78 121.717 1311.47 122.433C1283.22 122.931 1254.74 122.689 1226.26 122.582C1170.08 122.37 1113.69 122.815 1059.98 123.548C1028.58 123.976 998.149 124.66 968.875 125.544C947.909 126.175 926.662 126.977 905.258 127.531C874.845 128.318 843.927 128.394 811.335 128.839C799.824 128.996 788.173 129.219 776.444 129.343C727.019 129.754 674.768 121.801 628.262 119.369C616.035 118.729 604.206 118.452 592.823 118.758C547.492 119.971 502.157 127.332 460.26 139.839C453.066 141.978 445.933 144.28 438.839 146.706C413.534 155.366 388.681 165.623 363.368 175.826C348.319 181.9 333.354 188.958 316.613 192.14C306.237 194.117 295.491 194.409 283.858 192.518C272.813 190.723 263.248 187.709 252.765 184.996C216.66 175.65 167.427 173.28 130.639 184.903" stroke="#1B76BA" stroke-opacity="0.3" stroke-width="0.552088" stroke-miterlimit="10"/>
<path d="M1732.93 12.168C1679.24 46.6836 1611.57 77.3352 1534.29 96.4452C1500.56 104.881 1466.07 108.593 1431.34 114.653C1391.22 121.655 1349.8 124.219 1307.94 125.189C1279.3 125.859 1250.41 125.743 1221.52 125.668C1164.53 125.516 1107.34 125.653 1052.87 125.712C1021.02 125.745 990.155 125.921 960.45 126.201C939.135 126.402 917.585 126.719 895.911 126.78C865.078 126.868 833.796 126.217 800.71 126.226C789.042 126.228 777.22 126.335 765.321 126.383C715.084 126.465 661.993 119.274 614.761 117.767C602.37 117.371 590.381 117.346 578.837 117.893C533.011 120.062 487.52 128.394 445.68 141.78C438.497 144.07 431.378 146.52 424.294 149.091C399.032 158.267 374.2 168.979 348.685 179.44C333.511 185.669 318.333 192.761 301.325 196.048C290.778 198.09 279.857 198.466 268.085 196.754C256.816 195.114 246.934 192.296 236.174 189.727C199.143 180.886 149.544 178.407 111.951 189.857" stroke="#1B76BA" stroke-opacity="0.3" stroke-width="0.552088" stroke-miterlimit="10"/>
<path d="M1729.68 13.0976C1677.66 48.012 1610.72 78.8589 1533.97 97.9857C1499.63 106.543 1464.59 110.121 1429.36 116.477C1388.79 123.795 1346.84 126.717 1304.41 127.94C1275.38 128.784 1246.08 128.793 1216.78 128.746C1158.99 128.656 1101 128.482 1045.76 127.867C1013.46 127.508 982.167 127.17 952.035 126.849C930.371 126.618 908.519 126.45 886.578 126.022C855.325 125.411 823.683 124.035 790.095 123.606C778.27 123.455 766.278 123.445 754.204 123.415C703.152 123.168 649.224 116.737 601.263 116.155C588.708 116.002 576.559 116.229 564.852 117.018C518.531 120.139 472.883 129.445 431.104 143.709C423.931 146.148 416.826 148.746 409.757 151.462C384.537 161.153 359.723 172.323 334.009 183.04C318.71 189.424 303.315 196.55 286.043 199.942C275.326 202.051 264.234 202.511 252.324 200.974C240.826 199.49 230.631 196.867 219.597 194.443C181.641 186.108 131.671 183.522 93.2812 194.797" stroke="#1B76BA" stroke-opacity="0.3" stroke-width="0.552088" stroke-miterlimit="10"/>
<path d="M1726.42 14.0276C1676.09 49.3429 1609.94 80.473 1533.64 99.5264C1498.73 108.245 1463.1 111.649 1427.37 118.301C1386.35 125.936 1343.87 129.215 1300.88 130.69C1271.45 131.706 1241.75 131.84 1212.03 131.826C1153.44 131.794 1094.65 131.313 1038.64 130.025C1005.9 129.271 974.165 128.421 943.609 127.5C921.593 126.835 899.442 126.186 877.23 125.265C845.557 123.953 813.553 121.854 779.466 120.987C767.481 120.683 755.325 120.557 743.077 120.448C691.213 119.871 636.446 114.199 587.754 114.544C575.032 114.634 562.727 115.112 550.855 116.143C504.036 120.213 458.235 130.497 416.513 145.64C409.355 148.228 402.264 150.975 395.205 153.836C370.028 164.041 345.232 175.671 319.319 186.643C303.895 193.181 288.286 200.34 270.748 203.839C259.859 206.016 248.593 206.561 236.547 205.199C224.819 203.873 214.318 201.44 203.002 199.161C164.121 191.33 113.784 188.639 74.5898 199.738" stroke="#1B76BA" stroke-opacity="0.3" stroke-width="0.552088" stroke-miterlimit="10"/>
<path d="M1723.17 14.9593C1674.51 50.6733 1609.16 82.091 1533.32 101.069C1497.83 109.949 1461.62 113.179 1425.39 120.129C1383.91 128.081 1340.9 131.716 1297.35 133.444C1267.53 134.634 1237.42 134.892 1207.3 134.906C1147.91 134.936 1088.3 134.145 1031.53 132.184C998.342 131.038 966.177 129.674 935.195 128.152C912.83 127.055 890.376 125.921 867.893 124.509C835.804 122.494 803.433 119.675 768.852 118.37C756.71 117.912 744.383 117.669 731.964 117.482C679.285 116.575 623.681 111.66 574.26 112.934C561.374 113.265 548.908 113.996 536.873 115.272C489.559 120.288 443.598 131.553 401.937 147.575C394.789 150.314 387.712 153.211 380.668 156.214C355.534 166.933 330.759 179.02 304.642 190.251C289.094 196.944 273.272 204.137 255.467 207.741C244.407 209.985 232.967 210.618 220.782 209.428C208.825 208.259 198.011 206.02 186.418 203.885C146.611 196.558 95.9047 193.76 55.9127 204.687" stroke="#1B76BA" stroke-opacity="0.3" stroke-width="0.552088" stroke-miterlimit="10"/>
<path d="M1719.91 15.8892C1672.93 52.002 1608.44 83.7954 1532.98 102.61C1496.95 111.695 1460.13 114.707 1423.4 121.953C1381.47 130.222 1337.93 134.214 1293.82 136.193C1263.61 137.555 1233.09 137.937 1202.56 137.986C1142.36 138.076 1081.95 136.974 1024.42 134.34C990.778 132.799 958.182 130.921 926.769 128.801C904.055 127.267 881.299 125.653 858.55 123.751C826.04 121.035 793.306 117.495 758.226 115.75C745.928 115.14 733.43 114.779 720.836 114.514C667.347 113.278 610.902 109.118 560.751 111.324C547.702 111.899 535.072 112.879 522.881 114.399C475.068 120.359 428.954 132.606 387.349 149.506C380.216 152.394 373.15 155.44 366.116 158.588C341.025 169.821 316.268 182.366 289.952 193.853C274.279 200.701 258.24 207.928 240.175 211.636C228.948 213.945 217.329 214.669 205.01 213.649C192.825 212.64 181.705 210.576 169.827 208.601C129.116 201.73 78.0214 198.875 37.225 209.626" stroke="#1B76BA" stroke-opacity="0.3" stroke-width="0.552088" stroke-miterlimit="10"/>
<path d="M1716.65 16.8192C1671.36 53.3329 1607.66 85.4117 1532.66 104.152C1496.05 113.4 1458.65 116.238 1421.41 123.781C1379.03 132.365 1334.96 136.714 1290.28 138.949C1259.69 140.486 1228.76 140.991 1197.81 141.069C1136.82 141.22 1075.6 139.81 1017.3 136.502C983.217 134.569 950.188 132.174 918.347 129.456C895.285 127.487 872.229 125.389 849.206 122.998C816.28 119.579 783.179 115.318 747.605 113.135C735.15 112.371 722.485 111.893 709.716 111.551C655.411 109.985 598.127 106.577 547.253 109.716C534.036 110.533 521.25 111.763 508.895 113.528C460.581 120.431 414.317 133.662 372.769 151.442C365.647 154.481 358.599 157.673 351.576 160.964C326.527 172.711 301.791 185.714 275.272 197.459C259.475 204.463 243.222 211.721 224.89 215.536C213.492 217.912 201.699 218.726 189.244 217.876C176.832 217.029 165.399 215.152 153.243 213.322C111.606 206.954 60.1416 203.995 18.5443 214.571" stroke="#1B76BA" stroke-opacity="0.3" stroke-width="0.552088" stroke-miterlimit="10"/>
<path d="M1713.4 17.7511C1669.78 54.6636 1606.88 87.0279 1532.33 105.695C1495.15 115.106 1457.17 117.766 1419.43 125.607C1376.6 134.506 1332 139.214 1286.76 141.701C1255.77 143.409 1224.44 144.041 1193.08 144.15C1131.28 144.362 1069.26 142.641 1010.2 138.662C975.664 136.334 942.207 133.423 909.936 130.109C886.525 127.704 863.166 125.124 839.876 122.242C806.53 118.118 773.066 113.142 736.993 110.52C724.378 109.603 711.546 109.007 698.603 108.587C643.483 106.692 585.359 104.035 533.759 108.109C520.378 109.164 507.429 110.646 494.913 112.657C446.097 120.498 399.683 134.718 358.196 153.375C351.084 156.563 344.051 159.904 337.042 163.34C312.036 175.601 287.318 189.064 260.603 201.063C244.681 208.222 228.211 215.513 209.616 219.434C198.047 221.877 186.083 222.784 173.486 222.102C160.846 221.417 149.099 219.728 136.666 218.042C94.1 212.176 42.2724 209.112 -0.125793 219.516" stroke="#1B76BA" stroke-opacity="0.3" stroke-width="0.552088" stroke-miterlimit="10"/>
<path d="M1710.14 18.6808C1668.21 55.992 1606.09 88.6417 1532 107.235C1494.24 116.808 1455.68 119.291 1417.44 127.433C1374.15 136.647 1329.02 141.713 1283.22 144.452C1251.84 146.335 1220.1 147.091 1188.33 147.229C1125.73 147.502 1062.9 145.472 1003.07 140.817C968.096 138.097 934.205 134.667 901.507 130.757C877.75 127.915 854.086 124.853 830.525 121.485C796.762 116.657 762.932 110.963 726.364 107.901C713.593 106.83 700.589 106.117 687.476 105.619C631.544 103.395 572.576 101.489 520.25 106.499C506.702 107.796 493.596 109.527 480.917 111.784C431.595 120.563 385.032 135.771 343.606 155.308C336.508 158.647 329.485 162.137 322.49 165.716C297.527 178.494 272.827 192.411 245.913 204.668C229.866 211.983 213.182 219.308 194.32 223.335C182.581 225.846 170.442 226.845 157.71 226.331C144.838 225.81 132.782 224.305 120.071 222.767C76.5797 217.404 24.3819 214.235 -18.8173 224.463" stroke="#1B76BA" stroke-opacity="0.3" stroke-width="0.552088" stroke-miterlimit="10"/>
<path d="M1706.89 19.6104C1666.63 57.3226 1605.31 90.2577 1531.68 108.776C1493.34 118.512 1454.2 120.817 1415.45 129.256C1371.71 138.785 1326.06 144.211 1279.69 147.202C1247.92 149.256 1215.78 150.138 1183.6 150.308C1120.19 150.642 1056.56 148.301 995.968 142.975C960.543 139.86 926.225 135.914 893.096 131.408C868.99 128.129 845.027 124.584 821.192 120.727C787.013 115.194 752.816 108.784 715.75 105.281C702.818 104.06 689.651 103.227 676.359 102.651C619.612 100.097 559.801 98.9407 506.752 104.887C493.041 106.423 479.771 108.407 466.935 110.91C417.104 120.628 370.399 136.825 329.029 157.238C321.942 160.727 314.937 164.366 307.949 168.089C283.025 181.381 258.35 195.757 231.233 208.272C215.065 215.742 198.161 223.098 179.035 227.233C167.125 229.81 154.812 230.904 141.944 230.553C128.845 230.199 116.476 228.878 103.487 227.483C59.0666 222.624 6.50573 219.35 -37.4943 229.403" stroke="#1B76BA" stroke-opacity="0.3" stroke-width="0.552088" stroke-miterlimit="10"/>
<path d="M1703.63 20.5424C1665.05 58.6533 1604.53 91.8739 1531.35 110.321C1492.43 120.219 1452.71 122.345 1413.46 131.087C1369.27 140.928 1323.09 146.715 1276.16 149.96C1244 152.189 1211.44 153.194 1178.85 153.393C1114.64 153.788 1050.2 151.137 988.848 145.139C952.979 141.631 918.23 137.165 884.666 132.065C860.216 128.35 835.95 124.322 811.844 119.975C777.252 113.738 742.682 106.612 705.121 102.668C692.032 101.294 678.694 100.343 665.232 99.6901C607.674 96.8062 547.015 96.397 493.244 103.281C479.365 105.059 465.931 107.292 452.938 110.042C402.599 120.693 355.751 137.883 314.438 159.176C307.362 162.815 300.371 166.601 293.398 170.47C268.516 184.276 243.859 199.108 216.543 211.88C200.25 219.505 183.132 226.895 163.74 231.135C151.662 233.777 139.175 234.967 126.165 234.783C112.841 234.594 100.155 233.456 86.8918 232.207C41.5427 227.852 -11.3848 224.473 -56.1858 234.35" stroke="#1B76BA" stroke-opacity="0.3" stroke-width="0.552088" stroke-miterlimit="10"/>
<path d="M1700.37 21.4721C1663.48 59.9818 1603.75 93.4899 1531.02 111.861C1491.53 121.923 1451.23 123.871 1411.48 132.911C1366.83 143.065 1320.12 149.212 1272.63 152.709C1240.07 155.11 1207.11 156.239 1174.11 156.472C1109.1 156.928 1043.85 153.968 981.736 147.294C945.418 143.392 910.242 138.407 876.248 132.713C851.452 128.56 826.88 124.051 802.504 119.218C767.495 112.275 732.558 104.435 694.502 100.049C681.254 98.523 667.749 97.4547 654.112 96.7243C595.738 93.5109 534.236 93.8467 479.745 101.671C465.699 103.688 452.105 106.171 438.953 109.168C388.1 120.754 341.114 138.936 299.862 161.109C292.799 164.897 285.819 168.832 278.86 172.845C254.021 187.166 229.382 202.456 201.866 215.486C185.45 223.266 168.114 230.69 148.458 235.034C136.21 237.744 123.552 239.031 110.403 239.01C96.8514 238.989 83.8518 238.034 70.3111 236.927C24.0365 233.076 -29.2612 229.59 -74.8595 239.295" stroke="#1B76BA" stroke-opacity="0.3" stroke-width="0.552088" stroke-miterlimit="10"/>
<path d="M1697.12 22.402C1661.9 61.3126 1602.97 95.1041 1530.69 113.402C1490.63 123.625 1449.71 125.349 1409.49 134.735C1364.36 145.151 1317.15 151.708 1269.09 155.459C1236.15 158.034 1202.78 159.287 1169.37 159.549C1103.56 160.066 1037.51 156.796 974.624 149.45C937.861 145.155 902.258 139.65 867.83 133.362C842.688 128.77 817.814 123.781 793.167 118.458C757.746 110.81 722.42 102.301 683.884 97.4275C670.472 95.7631 656.807 94.5626 642.995 93.7545C583.81 90.2117 521.457 91.2947 466.248 100.059C452.034 102.316 438.28 105.051 424.967 108.293C373.602 120.813 326.473 139.988 285.282 163.038C278.23 166.975 271.268 171.061 264.316 175.217C239.52 190.052 214.902 205.802 187.183 219.087C170.642 227.023 153.093 234.478 133.17 238.93C120.751 241.707 107.922 243.09 94.634 243.233C80.8549 243.379 67.542 242.607 53.7237 241.646C6.52 238.298 -47.1407 234.707 -93.5435 244.238" stroke="#1B76BA" stroke-opacity="0.3" stroke-width="0.552088" stroke-miterlimit="10"/>
<path d="M1693.86 23.334C1660.32 62.6433 1602.18 96.7203 1530.36 114.945C1489.72 125.332 1448.23 126.881 1407.51 136.563C1361.92 147.296 1314.18 154.21 1265.56 158.212C1232.23 160.96 1198.45 162.339 1164.63 162.633C1098.01 163.21 1031.16 159.631 967.512 151.612C930.3 146.923 894.274 140.899 859.411 134.017C833.924 128.986 808.765 123.489 783.827 117.705C748.017 109.313 712.293 100.123 673.266 94.8124C659.697 92.9948 645.861 91.6767 631.875 90.791C571.875 86.9186 508.674 88.7467 452.746 98.4518C438.365 100.947 424.447 103.932 410.982 107.424C359.101 120.876 311.836 141.046 270.702 164.975C263.661 169.063 256.713 173.297 249.775 177.597C225.022 192.946 200.421 209.154 172.503 222.695C155.837 230.786 138.075 238.275 117.885 242.832C105.295 245.676 92.2953 247.155 78.865 247.46C64.8616 247.777 51.2319 247.183 37.136 246.368C-10.9932 243.524 -65.0242 239.826 -112.228 249.183" stroke="#1B76BA" stroke-opacity="0.3" stroke-width="0.552088" stroke-miterlimit="10"/>
<path d="M1690.61 24.2636C1658.75 63.9718 1601.4 98.3363 1530.04 116.487C1488.82 127.036 1446.75 128.411 1405.52 138.389C1359.48 149.441 1311.22 156.709 1262.04 160.966C1228.31 163.888 1194.13 165.39 1159.89 165.714C1092.47 166.352 1024.81 162.462 960.4 153.771C922.743 148.69 886.289 142.143 850.989 134.669C825.161 129.2 799.695 123.224 774.483 116.951C738.257 107.857 702.166 97.9459 662.641 92.1971C648.911 90.2263 634.908 88.7907 620.751 87.8273C559.939 83.6254 495.885 86.1965 439.241 96.844C424.693 99.5788 410.611 102.813 396.989 106.553C344.588 120.937 297.192 142.101 256.114 166.908C249.088 171.145 242.15 175.528 235.227 179.973C210.516 195.836 185.934 212.501 157.82 226.301C141.029 234.547 123.05 242.07 102.597 246.731C89.8354 249.642 76.665 251.221 63.0958 251.687C48.8682 252.176 34.9217 251.76 20.5481 251.089C-28.5101 248.748 -82.9042 244.945 -130.909 254.128" stroke="#1B76BA" stroke-opacity="0.3" stroke-width="0.552088" stroke-miterlimit="10"/>
<path d="M1687.35 25.1933C1657.17 65.3023 1600.62 99.9501 1529.71 118.028C1487.91 128.74 1445.26 129.939 1403.53 140.214C1357.04 151.584 1308.25 159.209 1258.5 163.717C1224.39 166.813 1189.79 168.44 1155.15 168.795C1086.93 169.493 1018.46 165.294 953.288 155.929C915.182 150.453 878.305 143.388 842.571 135.32C816.397 129.412 790.629 122.96 765.146 116.193C728.507 106.398 692.043 95.765 652.026 89.5797C638.14 87.4557 623.966 85.9025 609.635 84.8615C548.008 80.3301 483.102 83.6463 425.747 95.234C411.028 98.2081 396.786 101.692 383.007 105.68C330.086 120.993 282.559 143.155 241.538 168.841C234.522 173.229 227.602 177.759 220.689 182.349C196.021 198.728 171.46 215.849 143.144 229.907C126.229 238.308 108.036 245.862 87.3153 250.631C74.3869 253.607 61.0455 255.288 47.334 255.914C32.8821 256.573 18.6188 256.336 3.96756 255.811C-46.0197 253.974 -100.78 250.066 -149.586 259.072" stroke="#1B76BA" stroke-opacity="0.3" stroke-width="0.552088" stroke-miterlimit="10"/>
<path d="M1684.1 26.1252C1655.59 66.6331 1599.84 101.568 1529.38 119.57C1487.01 130.444 1443.77 131.469 1401.55 142.041C1354.6 153.727 1305.28 161.709 1254.97 166.469C1220.46 169.737 1185.46 171.49 1150.41 171.876C1081.38 172.633 1012.11 168.127 946.169 158.088C907.618 152.22 870.339 144.599 834.145 135.975C807.647 129.603 781.556 122.698 755.799 115.44C718.743 104.943 681.912 93.5865 641.397 86.9646C627.351 84.6874 613.013 83.0167 598.508 81.898C536.069 77.0371 470.27 81.0354 412.238 93.6285C397.341 96.825 382.946 100.576 369.01 104.811C315.567 121.056 267.907 144.213 226.951 170.776C219.946 175.314 213.04 179.994 206.138 184.727C181.513 201.621 156.969 219.198 128.454 233.513C111.414 242.068 93.0036 249.657 72.0198 254.531C58.9206 257.574 45.4119 259.354 31.5545 260.141C16.8819 260.974 2.29822 260.913 -12.6307 260.533C-63.5434 259.201 -118.671 255.185 -168.277 264.019" stroke="#1B76BA" stroke-opacity="0.3" stroke-width="0.552088" stroke-miterlimit="10"/>
<path d="M1680.84 27.0552C1654.02 67.9618 1599.05 103.183 1529.05 121.111C1486.11 132.149 1442.29 132.999 1399.56 143.867C1352.16 155.87 1302.31 164.207 1251.44 169.221C1216.54 172.663 1181.13 174.539 1145.67 174.955C1075.84 175.773 1005.76 170.957 939.053 160.246C900.058 153.983 862.351 145.85 825.723 136.626C798.88 129.819 772.486 122.431 746.458 114.684C708.99 103.487 671.785 91.4081 630.775 84.3475C616.572 81.915 602.064 80.1288 587.387 78.9325C524.134 73.742 457.487 78.4959 398.736 92.0188C383.672 95.4588 369.099 99.4404 355.025 103.938C300.997 121.05 253.27 145.267 212.371 172.709C205.38 177.398 198.485 182.225 191.597 187.101C167.015 204.509 142.493 222.546 113.774 237.117C96.6095 245.827 77.9857 253.45 56.735 258.428C43.4648 261.539 29.7889 263.419 15.7891 264.364C0.895756 265.369 -14.0082 265.485 -29.2112 265.25C-81.0531 264.421 -136.547 260.3 -186.954 268.96" stroke="#1B76BA" stroke-opacity="0.3" stroke-width="0.552088" stroke-miterlimit="10"/>
<path d="M1677.59 27.9851C1652.44 69.2926 1598.27 104.797 1528.73 122.652C1485.2 133.851 1440.81 134.527 1397.57 145.691C1349.72 158.013 1299.34 166.704 1247.9 171.97C1212.61 175.585 1176.8 177.585 1140.92 178.034C1070.29 178.913 999.406 173.786 931.941 162.402C892.497 155.746 854.364 147.099 817.305 137.274C790.117 130.035 763.416 122.165 737.118 113.925C699.233 102.026 661.662 89.2254 620.157 81.7262C605.794 79.1404 591.118 77.2367 576.267 75.9627C512.202 70.4428 444.705 75.9544 385.235 90.4049C370.004 94.0863 355.267 98.3197 341.036 103.063C286.499 121.126 238.63 146.316 197.787 174.638C190.807 179.476 183.93 184.452 177.053 189.473C152.513 207.395 128.009 225.89 99.0906 240.718C81.8017 249.584 62.9608 257.238 41.4467 262.324C28.0057 265.502 14.166 267.483 0.0201997 268.587C-15.0938 269.766 -30.3182 270.058 -45.7988 269.968C-98.5661 269.641 -154.427 265.418 -205.635 273.901" stroke="#1B76BA" stroke-opacity="0.3" stroke-width="0.552088" stroke-miterlimit="10"/>
<path d="M1674.33 28.9168C1650.87 70.6231 1597.49 106.415 1528.4 124.196C1484.3 135.559 1439.32 136.059 1395.58 147.519C1347.28 160.158 1296.37 169.206 1244.37 174.726C1208.69 178.515 1172.47 180.639 1136.18 181.117C1064.75 182.057 993.059 176.621 924.826 164.563C884.937 157.513 846.372 148.354 808.879 137.929C781.346 130.256 754.343 121.902 727.77 113.171C689.473 100.572 651.528 87.0466 609.528 79.1108C595.009 76.3718 580.165 74.3527 565.14 72.999C500.259 67.1495 431.915 73.4188 371.726 88.7991C356.328 92.724 341.431 97.2092 327.039 102.194C271.99 121.207 223.982 147.374 183.196 176.575C176.227 181.562 169.364 186.687 162.501 191.853C138.004 210.289 113.518 229.242 84.4001 244.326C66.9866 253.347 47.9321 261.035 26.151 266.225C12.5392 269.47 -1.46067 271.569 -15.7595 272.816C-31.0907 274.186 -46.639 274.636 -62.3972 274.692C-116.094 274.869 -172.321 270.541 -224.33 278.85" stroke="#1B76BA" stroke-opacity="0.3" stroke-width="0.552088" stroke-miterlimit="10"/>
<path d="M1671.08 29.8467C1649.29 71.9518 1596.71 108.029 1528.07 125.737C1483.4 137.262 1437.84 137.587 1393.6 149.345C1344.85 162.301 1293.4 171.706 1240.84 177.478C1133.77 189.236 1021.76 185.919 917.714 166.721C847.725 153.807 781.798 134.183 718.434 112.413C679.72 99.113 641.408 84.866 598.913 76.4916C520.791 61.0965 433.232 67.1076 358.232 87.1873C283.231 107.267 220.013 140.549 168.623 178.506C121.986 212.95 80.0965 253.492 10.8733 270.123C-68.2955 289.143 -160.289 271.049 -243 283.791" stroke="#1B76BA" stroke-opacity="0.3" stroke-width="0.552088" stroke-miterlimit="10"/>
<path d="M1505.81 296C1506.68 242.784 1474.77 189.586 1417.34 148.531C1401 136.85 1381.84 125.806 1357.68 120.683C1287.86 105.882 1213.31 138.238 1154.61 156.609C1083.77 178.777 1013.73 202.009 939.971 220.716C898.563 231.219 849.928 240.133 809.872 227.943C769.311 215.597 753.876 186.851 737.107 161.818C717.569 132.649 690.662 104.549 651.165 83.5438C611.667 62.5385 558.274 49.278 505.399 52.697C463.994 55.3751 426.266 67.7626 391.813 81.5667C301.289 117.839 224.384 165.859 168.146 221.224" stroke="#1B76BA" stroke-opacity="0.3" stroke-width="0.552088" stroke-miterlimit="10"/>
<path d="M1508.07 293.699C1508.84 246.666 1480.78 200.634 1431.03 161.155C1426.41 157.488 1421.65 153.882 1416.69 150.375C1400.38 138.854 1381.38 127.951 1357.56 122.788C1288.67 107.838 1215.26 138.502 1156.64 156.214C1104.67 171.918 1053.06 188.499 999.627 203.507C981.088 208.736 962.39 213.771 943.453 218.521C902.375 228.822 854.317 237.616 814.56 225.995C774.305 214.226 758.369 186.593 741.137 162.54C721.053 134.514 693.837 107.506 654.414 87.3109C640.689 80.2798 625.329 74.1511 608.923 69.2881C578.225 60.1833 543.861 55.5028 509.714 57.6311C468.697 60.1875 431.243 72.0732 397.01 85.2477C327.705 111.901 266.462 144.985 215.973 183.096C200.905 194.468 186.799 206.284 173.731 218.514" stroke="#1B76BA" stroke-opacity="0.3" stroke-width="0.552088" stroke-miterlimit="10"/>
<path d="M1510.33 291.401C1511.08 245.936 1481.52 202.454 1430.36 162.834C1425.71 159.239 1420.99 155.679 1416.04 152.224C1399.75 140.865 1380.92 130.1 1357.44 124.895C1289.47 109.794 1217.2 138.768 1158.66 155.824C1107.24 170.805 1056.09 186.948 1002.68 201.64C984.274 206.744 965.714 211.672 946.93 216.329C906.184 226.431 858.699 235.104 819.245 224.051C779.295 212.858 762.857 186.337 745.166 163.266C724.542 136.384 697.008 110.468 657.664 91.0847C643.963 84.3369 628.679 78.4538 612.383 73.788C581.902 65.0484 547.855 60.5443 514.031 62.5718C473.402 65.0086 436.226 76.3906 402.211 88.9334C333.318 114.302 272.478 145.569 221.843 181.927C206.732 192.776 192.533 204.074 179.32 215.809" stroke="#1B76BA" stroke-opacity="0.3" stroke-width="0.552088" stroke-miterlimit="10"/>
<path d="M1512.6 289.101C1513.31 245.203 1482.29 204.272 1429.69 164.511C1425.02 160.983 1420.32 157.472 1415.4 154.071C1399.13 142.872 1380.46 132.25 1357.32 127.002C1290.28 111.752 1219.17 139.037 1160.69 155.431C1109.82 169.693 1059.06 185.321 1005.74 199.772C987.449 204.729 969.05 209.573 950.415 214.138C910 224.039 863.088 232.591 823.94 222.108C784.297 211.49 767.357 186.083 749.203 163.993C728.034 138.254 700.191 113.429 660.925 94.8565C647.245 88.392 632.039 82.7545 615.853 78.284C585.586 69.9095 551.863 65.5817 518.356 67.5105C478.115 69.8277 441.217 80.706 407.418 92.617C338.935 116.703 278.501 146.15 227.72 180.758C212.567 191.085 198.278 201.864 184.919 213.106" stroke="#1B76BA" stroke-opacity="0.3" stroke-width="0.552088" stroke-miterlimit="10"/>
<path d="M1514.86 286.802C1515.55 244.473 1483.06 206.087 1429.01 166.19C1424.32 162.731 1419.65 159.266 1414.74 155.92C1398.5 144.882 1379.99 134.399 1357.2 129.109C1291.08 113.71 1221.14 139.31 1162.72 155.041C1112.41 168.587 1062.06 183.747 1008.79 197.903C990.625 202.731 972.375 207.474 953.89 211.947C913.805 221.648 867.47 230.081 828.621 220.164C789.284 210.123 771.842 185.829 753.225 164.719C731.512 140.124 703.359 116.388 664.168 98.6278C650.513 92.4446 635.385 87.0548 619.306 82.7794C589.256 74.7723 555.853 70.6208 522.664 72.4468C482.807 74.6422 446.186 85.0189 412.608 96.2981C344.538 119.1 284.506 146.729 233.575 179.585C218.376 189.388 203.999 199.65 190.494 210.396" stroke="#1B76BA" stroke-opacity="0.3" stroke-width="0.552088" stroke-miterlimit="10"/>
<path d="M1517.12 284.502C1517.79 243.741 1483.85 207.899 1428.34 167.867C1423.63 164.475 1418.98 161.061 1414.09 157.768C1397.87 146.889 1379.53 136.546 1357.08 131.217C1291.88 115.669 1223.12 139.585 1164.74 154.651C1115 167.487 1065.07 182.175 1011.84 196.038C993.807 200.735 975.703 205.378 957.371 209.758C917.617 219.258 871.855 227.571 833.309 218.223C794.278 208.757 776.337 185.577 757.254 165.447C735 141.995 706.534 119.352 667.418 102.404C653.788 96.5042 638.735 91.3599 622.766 87.2798C592.933 79.6379 559.847 75.6626 526.981 77.39C487.513 79.4657 451.169 89.3408 417.809 99.9883C350.152 121.508 290.522 147.317 239.445 178.422C224.203 187.703 209.733 197.446 196.082 207.697" stroke="#1B76BA" stroke-opacity="0.3" stroke-width="0.552088" stroke-miterlimit="10"/>
<path d="M1519.38 282.202C1520.02 243.008 1484.67 209.703 1427.67 169.542C1422.95 166.217 1418.32 162.851 1413.45 159.612C1397.25 148.895 1379.07 138.691 1356.96 133.32C1292.69 117.623 1225.11 139.858 1166.77 154.254C1117.61 166.385 1068.08 180.597 1014.89 194.163C996.989 198.731 979.031 203.272 960.852 207.558C921.43 216.858 876.244 225.05 837.997 216.271C799.272 207.38 780.83 185.315 761.284 166.165C738.485 143.856 709.709 122.305 670.668 106.167C657.063 100.551 642.088 95.6519 626.226 91.769C596.607 84.4923 563.844 80.6933 531.296 82.3199C492.215 84.2761 456.146 93.6474 423.006 103.663C355.762 123.898 296.534 147.89 245.311 177.243C230.023 186.001 215.464 195.226 201.671 204.981" stroke="#1B76BA" stroke-opacity="0.3" stroke-width="0.552088" stroke-miterlimit="10"/>
<path d="M1521.64 279.904C1522.26 242.278 1485.49 211.509 1426.99 171.221C1422.26 167.962 1417.65 164.645 1412.79 161.461C1396.62 150.904 1378.61 140.84 1356.83 135.429C1293.49 119.581 1227.1 140.143 1168.8 153.866C1120.23 165.296 1071.1 179.029 1017.94 192.3C1000.17 196.739 982.356 201.176 964.33 205.371C925.238 214.47 880.626 222.542 842.681 214.331C804.262 206.018 785.318 185.063 765.313 166.895C741.973 145.731 712.884 125.271 673.921 109.945C660.341 104.61 645.441 99.9588 629.69 96.2711C600.287 89.3596 567.845 85.7391 535.613 87.2649C496.921 89.0993 461.129 97.9691 428.203 107.353C361.372 126.306 302.546 148.478 251.174 176.08C235.843 184.316 221.191 193.022 207.252 202.282" stroke="#1B76BA" stroke-opacity="0.3" stroke-width="0.552088" stroke-miterlimit="10"/>
<path d="M1523.9 277.603C1524.49 241.545 1486.34 213.305 1426.32 172.898C1421.58 169.703 1416.98 166.44 1412.15 163.308C1396 152.913 1378.15 142.989 1356.72 137.536C1294.3 121.539 1229.12 140.429 1170.82 153.473C1122.85 164.209 1074.11 177.457 1021 190.43C1003.36 194.739 985.687 199.075 967.811 203.178C929.051 212.077 885.015 220.028 847.369 212.388C809.256 204.649 789.81 184.809 769.343 167.621C745.458 147.6 716.056 128.232 677.171 113.717C663.616 108.665 648.794 104.259 633.149 100.767C603.964 94.2224 571.843 90.7761 539.927 92.2033C501.623 93.9181 466.109 102.284 433.4 111.038C366.981 128.707 308.558 149.061 257.04 174.911C241.663 182.624 226.922 190.809 212.837 199.578" stroke="#1B76BA" stroke-opacity="0.3" stroke-width="0.552088" stroke-miterlimit="10"/>
<path d="M1526.16 275.303C1526.73 240.812 1487.2 215.095 1425.65 174.575C1420.9 171.445 1416.32 168.232 1411.5 165.155C1395.37 154.919 1377.68 145.136 1356.6 139.642C1295.1 123.495 1231.14 140.718 1172.85 153.08C1125.49 163.128 1077.13 175.889 1024.06 188.562C1006.54 192.745 989.016 196.976 971.292 200.987C932.863 209.684 889.401 217.515 852.057 210.444C814.251 203.281 794.303 184.555 773.372 168.348C748.943 149.47 719.231 131.194 680.421 117.49C666.891 112.722 652.143 108.562 636.609 105.264C607.638 99.0855 575.837 95.8176 544.245 97.1419C506.329 98.735 471.089 106.599 438.6 114.722C372.595 131.108 314.574 149.643 262.91 173.742C247.49 180.932 232.657 188.599 218.429 196.873" stroke="#1B76BA" stroke-opacity="0.3" stroke-width="0.552088" stroke-miterlimit="10"/>
<path d="M1528.43 273.005C1528.97 240.082 1488.09 216.884 1424.98 176.252C1420.22 173.186 1415.65 170.025 1410.85 167C1394.74 156.926 1377.22 147.282 1356.48 141.747C1295.9 125.452 1233.16 141.012 1174.88 152.686C1128.12 162.051 1080.15 174.319 1027.1 186.69C1009.72 190.745 992.337 194.873 974.766 198.792C936.668 207.29 893.782 214.999 856.738 208.497C819.237 201.908 798.788 184.297 777.395 169.07C752.424 151.337 722.399 134.151 683.663 121.258C670.158 116.771 655.486 112.856 640.062 109.756C611.308 103.942 579.827 100.851 548.552 102.077C511.02 103.55 476.061 110.911 443.79 118.401C378.198 133.503 320.579 150.218 268.765 172.567C253.302 179.235 238.377 186.383 224.003 194.162" stroke="#1B76BA" stroke-opacity="0.3" stroke-width="0.552088" stroke-miterlimit="10"/>
<path d="M1530.69 270.704C1531.2 239.35 1488.98 218.661 1424.31 177.929C1419.54 174.925 1414.98 171.819 1410.2 168.847C1394.12 158.932 1376.76 149.429 1356.36 143.852C1296.71 127.407 1235.2 141.314 1176.9 152.293C1130.77 160.983 1083.17 172.751 1030.16 184.821C1012.91 188.751 995.668 192.774 978.251 196.6C940.484 204.897 898.171 212.489 861.433 206.553C824.239 200.542 803.291 184.041 781.431 169.798C755.916 153.207 725.581 137.115 686.924 125.032C673.444 120.828 658.85 117.159 643.533 114.256C614.996 108.807 583.835 105.892 552.877 107.017C515.733 108.371 481.048 115.228 448.998 122.089C383.818 135.908 326.601 150.803 274.642 171.399C259.133 177.545 244.119 184.175 229.603 191.458" stroke="#1B76BA" stroke-opacity="0.3" stroke-width="0.552088" stroke-miterlimit="10"/>
<path d="M1532.95 268.406C1533.44 238.619 1489.9 220.433 1423.63 179.608C1418.86 176.668 1414.32 173.608 1409.55 170.696C1393.52 160.924 1376.3 151.58 1356.24 145.961C1297.51 129.366 1237.24 141.625 1178.93 151.905C1133.43 159.927 1086.19 171.192 1033.21 182.956C1016.09 186.759 999 190.675 981.729 194.409C944.293 202.507 902.557 209.976 866.117 204.61C829.229 199.174 807.779 183.787 785.461 170.524C759.401 155.077 728.756 140.076 690.174 128.805C676.719 124.885 662.199 121.462 646.993 118.754C618.669 113.673 587.829 110.934 557.195 111.958C520.439 113.19 486.032 119.545 454.198 125.775C389.432 138.309 332.617 151.387 280.512 170.233C264.96 175.855 249.853 181.967 235.191 188.757" stroke="#1B76BA" stroke-opacity="0.3" stroke-width="0.552088" stroke-miterlimit="10"/>
<path d="M1535.21 266.106C1535.68 237.887 1490.84 222.194 1422.96 181.285C1418.18 178.405 1413.66 175.402 1408.9 172.543C1392.9 162.931 1375.83 153.727 1356.12 148.067C1298.32 131.322 1239.3 141.942 1180.96 151.511C1136.09 158.871 1089.21 169.626 1036.27 181.086C1019.28 184.763 1002.33 188.574 985.21 192.216C948.105 200.112 906.942 207.462 870.805 202.664C834.223 197.803 812.271 183.531 789.49 171.248C762.889 156.945 731.932 143.036 693.424 132.575C679.99 128.935 665.553 125.76 650.449 123.248C622.343 118.532 591.823 115.969 561.506 116.892C525.137 118.005 491.008 123.856 459.392 129.454C395.038 140.706 338.626 151.964 286.371 169.057C270.773 174.157 255.577 179.751 240.769 186.045" stroke="#1B76BA" stroke-opacity="0.3" stroke-width="0.552088" stroke-miterlimit="10"/>
<path d="M1537.47 263.805C1537.91 237.154 1491.79 223.946 1422.29 182.962C1417.51 180.143 1412.99 177.194 1408.25 174.39C1392.27 164.937 1375.37 155.874 1355.99 150.174C1299.12 133.28 1241.36 142.267 1182.98 151.12C1138.76 157.828 1092.24 168.066 1039.32 179.217C1022.47 182.769 1005.65 186.475 988.688 190.024C951.914 197.721 911.328 204.949 875.49 200.72C839.214 196.436 816.76 183.277 793.516 171.974C766.371 158.815 735.1 145.997 696.67 136.348C683.261 132.992 668.899 130.062 653.906 127.745C626.016 123.394 595.817 121.008 565.816 121.833C529.836 122.826 495.981 128.173 464.582 133.141C400.641 143.109 344.631 152.549 292.23 167.892C276.589 172.47 261.301 177.545 246.351 183.344" stroke="#1B76BA" stroke-opacity="0.3" stroke-width="0.552088" stroke-miterlimit="10"/>
<path d="M1539.74 261.507C1540.15 236.424 1492.76 225.69 1421.62 184.639C1416.84 181.881 1412.33 178.987 1407.61 176.237C1391.65 166.943 1374.91 158.021 1355.88 152.279C1299.93 135.236 1243.43 142.601 1185.01 150.726C1141.43 156.787 1095.26 166.505 1042.37 177.347C1025.65 180.775 1008.98 184.374 992.17 187.831C955.726 195.326 915.713 202.435 880.178 198.775C844.208 195.066 821.252 183.018 797.546 172.698C769.859 160.683 738.275 148.956 699.924 140.118C686.54 137.045 672.255 134.361 657.369 132.241C629.693 128.255 599.814 126.047 570.138 126.771C534.545 127.642 500.968 132.489 469.786 136.825C406.258 145.51 350.65 153.131 298.103 166.721C282.416 170.774 267.039 175.33 251.943 180.636" stroke="#1B76BA" stroke-opacity="0.3" stroke-width="0.552088" stroke-miterlimit="10"/>
<path d="M1542 259.207C1542.38 235.691 1493.74 227.422 1420.94 186.316C1416.16 183.617 1411.65 180.779 1406.95 178.084C1391.02 168.952 1374.42 160.191 1355.75 154.386C1300.67 137.259 1245.51 142.947 1187.04 150.335C1144.11 155.761 1098.28 164.95 1045.42 175.479C1028.84 178.783 1012.31 182.276 995.647 185.64C959.535 192.936 920.098 199.923 884.862 196.831C849.195 193.698 825.741 182.765 801.575 173.425C773.344 162.553 741.45 151.918 703.174 143.892C689.815 141.1 675.605 138.664 660.829 136.739C633.37 133.12 603.811 131.087 574.452 131.71C539.244 132.461 505.944 136.804 474.983 140.508C411.868 147.909 356.662 153.712 303.966 165.552C288.236 169.082 272.766 173.12 257.524 177.933" stroke="#1B76BA" stroke-opacity="0.3" stroke-width="0.552088" stroke-miterlimit="10"/>
<path d="M1544.26 256.909C1544.62 234.961 1494.75 229.145 1420.27 187.995C1415.49 185.355 1410.99 182.576 1406.31 179.933C1390.4 170.961 1373.97 162.341 1355.64 156.496C1301.48 139.218 1247.59 143.304 1189.07 149.947C1146.8 154.745 1101.32 163.399 1048.49 173.616C1032.03 176.798 1015.64 180.181 999.132 183.453C963.351 190.547 924.487 197.415 889.554 194.894C854.193 192.338 830.24 182.517 805.608 174.157C776.832 164.429 744.629 154.886 706.427 147.67C693.093 145.162 678.958 142.971 664.292 141.241C637.051 137.988 607.812 136.133 578.77 136.655C543.95 137.285 510.927 141.128 480.183 144.2C417.481 150.319 362.674 154.302 309.836 164.389C294.06 167.397 278.504 170.917 263.116 175.234" stroke="#1B76BA" stroke-opacity="0.3" stroke-width="0.552088" stroke-miterlimit="10"/>
<path d="M1546.52 254.609C1546.86 234.227 1495.77 230.856 1419.6 189.672C1414.82 187.091 1410.32 184.368 1405.65 181.781C1389.77 172.97 1373.5 164.488 1355.51 158.601C1302.27 141.174 1249.67 143.672 1191.09 149.553C1149.48 153.731 1104.34 161.844 1051.53 171.744C1035.22 174.804 1018.96 178.076 1002.61 181.258C967.156 188.153 928.869 194.9 894.235 192.946C859.18 190.965 834.725 182.259 809.63 174.88C780.314 166.293 747.797 157.841 709.67 151.437C696.361 149.213 682.304 147.267 667.745 145.733C640.717 142.845 611.799 141.166 583.077 141.588C548.645 142.098 515.9 145.437 485.373 147.878C423.084 152.711 368.679 154.875 315.695 163.214C299.876 165.699 284.228 168.7 268.694 172.523" stroke="#1B76BA" stroke-opacity="0.3" stroke-width="0.552088" stroke-miterlimit="10"/>
<path d="M1548.79 252.308C1549.1 233.494 1496.81 232.552 1418.93 191.347C1414.15 188.822 1409.65 186.161 1405.01 183.625C1389.15 174.974 1373.04 166.633 1355.4 160.706C1303.08 143.128 1251.77 144.049 1193.12 149.16C1152.18 152.728 1107.38 160.294 1054.59 169.876C1038.41 172.814 1022.29 175.977 1006.09 179.064C970.972 185.758 933.258 192.386 898.926 191.001C864.177 189.594 839.221 182.001 813.663 175.603C783.802 168.161 750.975 160.8 712.927 155.209C699.643 153.265 685.66 151.567 671.212 150.23C644.401 147.708 615.804 146.205 587.402 146.528C553.358 146.918 520.887 149.754 490.581 151.563C428.705 155.114 374.702 155.459 321.568 162.045C305.707 164.007 289.966 166.49 274.286 169.817" stroke="#1B76BA" stroke-opacity="0.3" stroke-width="0.552088" stroke-miterlimit="10"/>
<path d="M1551.05 250.01C1551.33 232.764 1497.87 234.237 1418.26 193.026C1413.49 190.558 1408.98 187.955 1404.36 185.474C1388.52 176.984 1372.58 168.782 1355.28 162.813C1303.89 145.084 1253.86 144.444 1195.15 148.768C1154.87 151.733 1110.4 158.745 1057.64 168.006C1041.59 170.822 1025.62 173.876 1009.57 176.871C974.781 183.365 937.64 189.871 903.614 189.055C869.171 188.226 843.713 181.745 817.693 176.328C787.287 170.029 754.147 163.76 716.177 158.978C702.917 157.318 689.014 155.866 674.672 154.724C648.078 152.569 619.801 151.242 591.716 151.462C558.06 151.731 525.867 154.065 495.778 155.245C434.315 157.511 380.714 156.038 327.434 160.872C311.527 162.311 295.697 164.276 279.875 167.107" stroke="#1B76BA" stroke-opacity="0.3" stroke-width="0.552088" stroke-miterlimit="10"/>
<path d="M1553.31 247.709C1553.56 232.031 1498.94 235.907 1417.58 194.703C1412.82 192.289 1408.31 189.747 1403.7 187.321C1387.89 178.993 1372.13 170.91 1355.15 164.92C1304.75 146.981 1255.95 144.853 1197.17 148.377C1157.55 150.751 1113.43 157.201 1060.69 166.14C1044.78 168.837 1028.95 171.779 1013.05 174.682C978.59 180.974 942.026 187.361 908.298 187.113C874.162 186.859 848.202 181.493 821.722 177.056C790.775 171.901 757.322 166.723 719.427 162.754C706.192 161.377 692.363 160.17 678.132 159.224C651.752 157.434 623.798 156.283 596.03 156.405C562.759 156.554 530.843 158.384 500.971 158.932C439.921 159.917 386.723 156.623 333.297 159.707C317.347 160.624 301.424 162.068 285.456 164.408" stroke="#1B76BA" stroke-opacity="0.3" stroke-width="0.552088" stroke-miterlimit="10"/>
<path d="M1555.57 245.411C1555.8 231.301 1500.03 237.566 1416.91 196.382C1412.15 194.025 1407.65 191.544 1403.06 189.17C1387.26 181.004 1371.67 173.06 1355.03 167.028C1305.56 148.938 1258.05 145.277 1199.2 147.987C1160.25 149.779 1116.47 155.66 1063.75 164.272C1047.97 166.849 1032.28 169.68 1016.53 172.491C982.402 178.584 946.411 184.849 912.986 185.17C879.156 185.491 852.694 181.239 825.752 177.782C794.26 173.771 760.497 169.685 722.677 166.526C709.464 165.43 695.716 164.469 681.592 163.72C655.429 162.295 627.792 161.321 600.348 161.344C567.465 161.373 535.827 162.7 506.172 162.616C445.534 162.316 392.739 157.205 339.163 158.536C323.166 158.93 307.155 159.856 291.045 161.701" stroke="#1B76BA" stroke-opacity="0.3" stroke-width="0.552088" stroke-miterlimit="10"/>
<path d="M1557.83 243.111C1558.04 230.568 1501.13 239.205 1416.24 198.057C1411.49 195.755 1406.98 193.335 1402.41 191.015C1386.64 183.01 1371.21 175.205 1354.91 169.133C1306.36 150.894 1260.14 145.716 1201.23 147.592C1162.94 148.812 1119.51 154.115 1066.8 162.402C1051.16 164.859 1035.6 167.577 1020.01 170.298C986.211 176.189 950.796 182.334 917.671 183.224C884.147 184.123 857.186 180.981 829.778 178.506C797.741 175.639 763.669 172.644 725.927 170.298C712.738 169.485 699.066 168.77 685.052 168.218C659.103 167.158 631.79 166.362 604.662 166.282C572.167 166.19 540.807 167.015 511.369 166.299C451.144 164.717 398.751 157.786 345.029 157.367C328.99 157.239 312.886 157.646 296.63 158.995" stroke="#1B76BA" stroke-opacity="0.3" stroke-width="0.552088" stroke-miterlimit="10"/>
<path d="M1560.09 240.811C1560.28 229.836 1502.26 240.829 1415.56 199.734C1410.82 197.484 1406.3 195.133 1401.76 192.862C1385.98 185.036 1370.75 177.352 1354.79 171.24C1307.16 152.852 1262.22 146.173 1203.25 147.202C1165.63 147.857 1122.54 152.581 1069.85 160.534C1054.35 162.874 1038.93 165.479 1023.49 168.106C990.023 173.798 955.182 179.822 922.359 181.281C889.141 182.754 861.679 180.727 833.807 179.232C801.23 177.507 766.844 175.606 729.176 174.069C716.013 173.54 702.416 173.07 688.512 172.713C662.78 172.021 635.787 171.4 608.976 171.221C576.869 171.009 545.783 171.33 516.566 169.985C456.754 167.118 404.763 158.37 350.896 156.198C334.81 155.547 318.617 155.436 302.215 156.29" stroke="#1B76BA" stroke-opacity="0.3" stroke-width="0.552088" stroke-miterlimit="10"/>
<path d="M1562.35 238.512C1562.51 229.105 1503.4 242.439 1414.89 201.413C1410.15 199.218 1405.64 196.93 1401.11 194.709C1385.36 187.044 1370.29 179.501 1354.67 173.345C1307.97 154.808 1264.31 146.648 1205.28 146.807C1168.31 146.908 1125.58 151.043 1072.91 158.664C1057.54 160.886 1042.26 163.378 1026.97 165.911C993.835 171.401 959.571 177.308 927.047 179.333C894.135 181.381 866.171 180.468 837.836 179.954C804.714 179.373 770.019 178.563 732.426 177.837C719.288 177.589 705.769 177.366 691.972 177.205C666.456 176.877 639.781 176.434 613.29 176.153C581.571 175.822 550.763 175.639 521.763 173.662C462.364 169.512 410.775 158.945 356.758 155.022C340.63 153.849 324.345 153.219 307.8 153.58" stroke="#1B76BA" stroke-opacity="0.3" stroke-width="0.552088" stroke-miterlimit="10"/>
<path d="M1564.62 236.212C1564.75 228.373 1504.56 244.03 1414.22 203.09C1409.49 200.947 1404.97 198.722 1400.46 196.556C1384.73 189.051 1369.82 181.648 1354.55 175.452C1308.77 156.766 1266.38 147.141 1207.31 146.417C1170.99 145.972 1128.61 149.512 1075.96 156.795C1060.73 158.903 1045.59 161.279 1030.45 163.72C997.644 169.011 963.952 174.795 931.731 177.391C899.125 180.015 870.659 180.217 841.866 180.682C808.203 181.245 773.194 181.526 735.676 181.612C722.563 181.648 709.118 181.671 695.431 181.705C670.13 181.742 643.778 181.476 617.608 181.096C586.277 180.643 555.743 179.958 526.963 177.349C467.977 171.916 416.791 159.528 362.628 153.855C346.457 152.159 330.079 151.011 313.388 150.877" stroke="#1B76BA" stroke-opacity="0.3" stroke-width="0.552088" stroke-miterlimit="10"/>
<path d="M1566.88 233.914C1566.98 227.642 1505.73 245.604 1413.55 204.769C1408.83 202.679 1404.3 200.517 1399.81 198.405C1384.1 191.061 1369.36 183.797 1354.43 177.56C1309.58 158.722 1268.44 147.653 1209.34 146.026C1173.65 145.044 1131.65 147.985 1079.02 154.93C1063.92 156.922 1048.92 159.182 1033.93 161.531C1001.46 166.62 968.341 172.285 936.419 175.45C904.119 178.651 875.151 179.963 845.895 181.411C811.688 183.117 776.366 184.49 738.926 185.386C725.837 185.705 712.471 185.974 698.888 186.203C673.803 186.606 647.772 186.515 621.919 186.035C590.972 185.462 560.719 184.274 532.157 181.035C473.584 174.319 422.799 160.112 368.491 152.686C352.273 150.468 335.807 148.801 318.97 148.171" stroke="#1B76BA" stroke-opacity="0.3" stroke-width="0.552088" stroke-miterlimit="10"/>
<path d="M1569.14 231.613C1569.22 226.91 1506.92 247.157 1412.88 206.444C1408.16 204.404 1403.64 202.309 1399.16 200.25C1383.48 193.066 1368.9 185.942 1354.31 179.665C1310.38 160.678 1270.49 148.182 1211.37 145.632C1176.32 144.121 1134.69 146.457 1082.07 153.058C1067.11 154.934 1052.25 157.077 1037.41 159.335C1005.27 164.226 972.727 169.769 941.111 173.502C909.117 177.278 879.647 179.705 849.928 182.133C815.176 184.983 779.545 187.447 742.183 189.156C729.12 189.756 715.828 190.272 702.355 190.698C677.488 191.469 651.773 191.555 626.24 190.973C595.681 190.279 565.706 188.589 537.357 184.719C479.197 176.72 428.815 160.693 374.357 151.517C358.097 148.776 341.537 146.589 324.558 145.466" stroke="#1B76BA" stroke-opacity="0.3" stroke-width="0.552088" stroke-miterlimit="10"/>
<path d="M1571.4 229.313C1571.45 226.177 1508.12 248.692 1412.2 208.121C1407.5 206.131 1402.97 204.101 1398.51 202.097C1382.86 195.074 1368.44 188.091 1354.19 181.77C1311.19 162.634 1272.52 148.73 1213.39 145.239C1178.97 143.208 1137.72 144.935 1085.12 151.189C1070.31 152.953 1055.58 154.978 1040.89 157.144C1009.08 161.833 977.116 167.256 945.799 171.559C914.111 175.91 884.14 179.451 853.958 182.859C818.664 186.853 782.72 190.409 745.433 192.927C732.394 193.811 719.181 194.573 705.815 195.194C681.161 196.329 655.771 196.592 630.558 195.912C600.387 195.097 570.686 192.904 542.558 188.402C484.811 179.119 434.831 161.274 380.227 150.346C363.92 147.082 347.272 144.377 330.147 142.76" stroke="#1B76BA" stroke-opacity="0.3" stroke-width="0.552088" stroke-miterlimit="10"/>
<path d="M1573.66 227.015C1573.69 225.447 1509.35 250.207 1411.53 209.8C1406.83 207.86 1402.3 205.898 1397.86 203.946C1382.23 197.083 1367.97 190.241 1354.07 183.879C1311.99 164.595 1274.53 149.3 1215.41 144.849C1181.6 142.303 1140.76 143.455 1088.17 149.321C1073.49 150.982 1058.9 152.879 1044.36 154.953C1012.89 159.442 981.494 164.744 950.479 169.615C919.098 174.543 888.628 179.196 857.98 183.585C822.142 188.723 785.888 193.37 748.676 196.701C735.662 197.868 722.524 198.875 709.268 199.692C684.831 201.192 659.761 201.631 634.865 200.85C605.082 199.916 575.659 197.221 547.748 192.088C490.414 181.522 440.836 161.858 386.086 149.179C369.737 145.392 352.996 142.169 335.728 140.057" stroke="#1B76BA" stroke-opacity="0.3" stroke-width="0.552088" stroke-miterlimit="10"/>
<path d="M1575.93 224.714C1575.93 224.714 1510.58 251.701 1410.86 211.477C1311.13 171.252 1276.8 127.852 1091.23 147.454C962.991 160.999 842.015 194.224 712.735 204.188C659.544 208.287 603.797 206.356 552.952 195.771C496.031 183.921 446.855 162.439 391.955 148.008C375.56 143.699 358.734 139.956 341.317 137.35" stroke="#1B76BA" stroke-opacity="0.3" stroke-width="0.552088" stroke-miterlimit="10"/>
</svg>
